<svg xmlns="http://www.w3.org/2000/svg" viewBox="0 0 160 160" role="img" aria-labelledby="title"><title id="title">A golden welcome</title><defs><radialGradient id="bg"><stop stop-color="#741a43"/><stop offset="1" stop-color="#180c23"/></radialGradient><linearGradient id="gold" x2=".8" y2="1"><stop stop-color="#fff1b0"/><stop offset=".48" stop-color="#efc65c"/><stop offset="1" stop-color="#b67a20"/></linearGradient><filter id="glow"><feGaussianBlur stdDeviation="2"/></filter></defs><style>.spark{animation:glimmer 3s ease-in-out infinite alternate}.flame{animation:glimmer 1.8s ease-in-out infinite alternate}@keyframes glimmer{from{opacity:.55}to{opacity:1}}@media(prefers-reduced-motion:reduce){.spark,.flame{animation:none}}</style><circle cx="80" cy="80" r="76" fill="url(#bg)"/><circle cx="80" cy="80" r="73" fill="none" stroke="url(#gold)" stroke-width="2"/><circle cx="80" cy="80" r="65" fill="none" stroke="#efc65c" stroke-opacity=".25" stroke-dasharray="2 7"/><g fill="url(#gold)" fill-opacity=".24" stroke="url(#gold)" stroke-width="3" stroke-linejoin="round" stroke-linecap="round"><path d="M46 76h68v48H46zM40 61h80v19H40z"/><path d="M80 61v63M80 62c-46-3-32-39-13-22zM80 62c46-3 32-39 13-22z" fill="none"/><path d="m80 25 4 9 10 1-8 6 2 10-8-5-8 5 2-10-8-6 10-1z"/></g><g class="spark" fill="#ffe9a0"><circle cx="23" cy="72" r="2"/><circle cx="126" cy="29" r="2"/><circle cx="127" cy="127" r="2"/><circle cx="39" cy="30" r="1.5"/></g></svg>